<mxfile host="app.diagrams.net" modified="2021-06-15T03:58:32.416Z" agent="5.0 (Macintosh; Intel Mac OS X 10_15_7) AppleWebKit/537.36 (KHTML, like Gecko) Chrome/91.0.4472.77 Safari/537.36" etag="Y9nS1QFYOhRkbqfKhF_1" version="14.5.1" type="github">
  <diagram id="Ll0VtS5k7MybpNmATOE-" name="Page-1">
    <mxGraphModel dx="1495" dy="748" grid="1" gridSize="10" guides="1" tooltips="1" connect="1" arrows="1" fold="1" page="1" pageScale="1" pageWidth="827" pageHeight="1169" math="0" shadow="0">
      <root>
        <mxCell id="0" />
        <mxCell id="1" parent="0" />
        <mxCell id="YumP3khAgC9zow3Is1LS-1" value="Coordinator" style="rounded=0;whiteSpace=wrap;html=1;" vertex="1" parent="1">
          <mxGeometry x="240" y="120" width="140" height="50" as="geometry" />
        </mxCell>
        <mxCell id="YumP3khAgC9zow3Is1LS-2" value="CoordinatorContext" style="rounded=1;whiteSpace=wrap;html=1;" vertex="1" parent="1">
          <mxGeometry x="240" y="170" width="140" height="30" as="geometry" />
        </mxCell>
        <mxCell id="YumP3khAgC9zow3Is1LS-3" value="Store" style="shape=datastore;whiteSpace=wrap;html=1;" vertex="1" parent="1">
          <mxGeometry x="600" y="220" width="60" height="60" as="geometry" />
        </mxCell>
        <mxCell id="YumP3khAgC9zow3Is1LS-4" value="" style="group" vertex="1" connectable="0" parent="1">
          <mxGeometry x="240" y="280" width="180" height="100" as="geometry" />
        </mxCell>
        <mxCell id="YumP3khAgC9zow3Is1LS-5" value="" style="group" vertex="1" connectable="0" parent="YumP3khAgC9zow3Is1LS-4">
          <mxGeometry width="180" height="100" as="geometry" />
        </mxCell>
        <mxCell id="YumP3khAgC9zow3Is1LS-6" value="Executor" style="rounded=0;whiteSpace=wrap;html=1;" vertex="1" parent="YumP3khAgC9zow3Is1LS-5">
          <mxGeometry width="140" height="50" as="geometry" />
        </mxCell>
        <mxCell id="YumP3khAgC9zow3Is1LS-7" value="ExecutorContext" style="rounded=1;whiteSpace=wrap;html=1;" vertex="1" parent="YumP3khAgC9zow3Is1LS-5">
          <mxGeometry y="50" width="140" height="30" as="geometry" />
        </mxCell>
        <mxCell id="YumP3khAgC9zow3Is1LS-8" value="" style="group" vertex="1" connectable="0" parent="YumP3khAgC9zow3Is1LS-5">
          <mxGeometry x="20" y="10" width="160" height="90" as="geometry" />
        </mxCell>
        <mxCell id="YumP3khAgC9zow3Is1LS-9" value="Executor" style="rounded=0;whiteSpace=wrap;html=1;" vertex="1" parent="YumP3khAgC9zow3Is1LS-8">
          <mxGeometry width="140" height="50" as="geometry" />
        </mxCell>
        <mxCell id="YumP3khAgC9zow3Is1LS-10" value="ExecutorContext" style="rounded=1;whiteSpace=wrap;html=1;" vertex="1" parent="YumP3khAgC9zow3Is1LS-8">
          <mxGeometry y="50" width="140" height="30" as="geometry" />
        </mxCell>
        <mxCell id="YumP3khAgC9zow3Is1LS-11" value="" style="group" vertex="1" connectable="0" parent="YumP3khAgC9zow3Is1LS-8">
          <mxGeometry x="20" y="10" width="140" height="80" as="geometry" />
        </mxCell>
        <mxCell id="YumP3khAgC9zow3Is1LS-12" value="Executor" style="rounded=0;whiteSpace=wrap;html=1;" vertex="1" parent="YumP3khAgC9zow3Is1LS-11">
          <mxGeometry width="140" height="50" as="geometry" />
        </mxCell>
        <mxCell id="YumP3khAgC9zow3Is1LS-13" value="ExecutorContext" style="rounded=1;whiteSpace=wrap;html=1;" vertex="1" parent="YumP3khAgC9zow3Is1LS-11">
          <mxGeometry y="50" width="140" height="30" as="geometry" />
        </mxCell>
        <mxCell id="YumP3khAgC9zow3Is1LS-14" value="" style="endArrow=classic;html=1;exitX=1;exitY=0.5;exitDx=0;exitDy=0;entryX=0;entryY=0.5;entryDx=0;entryDy=0;edgeStyle=orthogonalEdgeStyle;" edge="1" parent="1" source="YumP3khAgC9zow3Is1LS-13" target="YumP3khAgC9zow3Is1LS-3">
          <mxGeometry width="50" height="50" relative="1" as="geometry">
            <mxPoint x="390" y="490" as="sourcePoint" />
            <mxPoint x="600" y="230" as="targetPoint" />
            <Array as="points">
              <mxPoint x="520" y="365" />
              <mxPoint x="520" y="250" />
            </Array>
          </mxGeometry>
        </mxCell>
        <mxCell id="YumP3khAgC9zow3Is1LS-15" value="2. Save context" style="edgeLabel;html=1;align=center;verticalAlign=middle;resizable=0;points=[];" vertex="1" connectable="0" parent="YumP3khAgC9zow3Is1LS-14">
          <mxGeometry x="-0.7424" y="1" relative="1" as="geometry">
            <mxPoint x="6" as="offset" />
          </mxGeometry>
        </mxCell>
        <mxCell id="YumP3khAgC9zow3Is1LS-16" value="" style="endArrow=classic;html=1;exitX=1;exitY=0.5;exitDx=0;exitDy=0;entryX=0;entryY=0.5;entryDx=0;entryDy=0;edgeStyle=orthogonalEdgeStyle;" edge="1" parent="1" source="YumP3khAgC9zow3Is1LS-2" target="YumP3khAgC9zow3Is1LS-3">
          <mxGeometry width="50" height="50" relative="1" as="geometry">
            <mxPoint x="430" y="375" as="sourcePoint" />
            <mxPoint x="610" y="340" as="targetPoint" />
            <Array as="points">
              <mxPoint x="520" y="185" />
              <mxPoint x="520" y="250" />
            </Array>
          </mxGeometry>
        </mxCell>
        <mxCell id="YumP3khAgC9zow3Is1LS-17" value="3. Save context" style="edgeLabel;html=1;align=center;verticalAlign=middle;resizable=0;points=[];" vertex="1" connectable="0" parent="YumP3khAgC9zow3Is1LS-16">
          <mxGeometry x="-0.7333" relative="1" as="geometry">
            <mxPoint x="27" y="-1" as="offset" />
          </mxGeometry>
        </mxCell>
        <mxCell id="YumP3khAgC9zow3Is1LS-18" value="" style="shape=flexArrow;endArrow=classic;html=1;exitX=0.5;exitY=1;exitDx=0;exitDy=0;entryX=0.5;entryY=0;entryDx=0;entryDy=0;" edge="1" parent="1" source="YumP3khAgC9zow3Is1LS-2" target="YumP3khAgC9zow3Is1LS-6">
          <mxGeometry width="50" height="50" relative="1" as="geometry">
            <mxPoint x="390" y="490" as="sourcePoint" />
            <mxPoint x="440" y="440" as="targetPoint" />
          </mxGeometry>
        </mxCell>
        <mxCell id="YumP3khAgC9zow3Is1LS-19" value="1. Init executors" style="edgeLabel;html=1;align=center;verticalAlign=middle;resizable=0;points=[];" vertex="1" connectable="0" parent="YumP3khAgC9zow3Is1LS-18">
          <mxGeometry x="-0.225" y="2" relative="1" as="geometry">
            <mxPoint as="offset" />
          </mxGeometry>
        </mxCell>
        <mxCell id="YumP3khAgC9zow3Is1LS-20" value="" style="endArrow=classic;html=1;entryX=1;entryY=0.5;entryDx=0;entryDy=0;exitX=0.5;exitY=0;exitDx=0;exitDy=0;edgeStyle=orthogonalEdgeStyle;dashed=1;" edge="1" parent="1" source="YumP3khAgC9zow3Is1LS-3" target="YumP3khAgC9zow3Is1LS-1">
          <mxGeometry width="50" height="50" relative="1" as="geometry">
            <mxPoint x="390" y="490" as="sourcePoint" />
            <mxPoint x="440" y="440" as="targetPoint" />
          </mxGeometry>
        </mxCell>
        <mxCell id="YumP3khAgC9zow3Is1LS-21" value="" style="endArrow=classic;html=1;entryX=1;entryY=0.5;entryDx=0;entryDy=0;exitX=0.5;exitY=1;exitDx=0;exitDy=0;edgeStyle=orthogonalEdgeStyle;dashed=1;" edge="1" parent="1" source="YumP3khAgC9zow3Is1LS-3" target="YumP3khAgC9zow3Is1LS-12">
          <mxGeometry width="50" height="50" relative="1" as="geometry">
            <mxPoint x="640" y="230" as="sourcePoint" />
            <mxPoint x="390" y="155" as="targetPoint" />
          </mxGeometry>
        </mxCell>
      </root>
    </mxGraphModel>
  </diagram>
</mxfile>
